<svg width="135" height="39" viewBox="0 0 135 39" fill="none" xmlns="http://www.w3.org/2000/svg">
<path fill-rule="evenodd" clip-rule="evenodd" d="M131.06 4.65999C129.99 4.65999 129.54 5.62999 129.46 6.33999H132.48C132.49 5.69999 132.21 4.65999 131.06 4.65999ZM63.75 8.41999C63.75 9.08999 64.19 9.39999 64.73 9.39999C65.43 9.39999 65.93 8.94999 66.1 8.45999C66.14 8.32999 66.14 8.20999 66.14 8.07999V7.13999C64.92 7.11999 63.74 7.37999 63.74 8.41999H63.75ZM97.05 4.72999C95.83 4.72999 95.33 5.92999 95.33 7.06999C95.33 8.38999 96 9.38999 97.03 9.38999C98.03 9.38999 98.71 8.42999 98.71 7.03999C98.71 5.96999 98.23 4.73999 97.05 4.73999V4.72999ZM85.42 4.65999C84.36 4.65999 83.9 5.62999 83.83 6.33999H86.85C86.85 5.69999 86.58 4.65999 85.42 4.65999ZM72.97 4.82999C72.27 4.82999 71.62 5.32999 71.43 6.09999C71.4 6.21999 71.38 6.37999 71.38 6.54999V7.64999C71.3747 7.86082 71.4116 8.07059 71.4886 8.26692C71.5656 8.46326 71.6811 8.64219 71.8284 8.79317C71.9756 8.94415 72.1516 9.06412 72.346 9.14601C72.5403 9.2279 72.7491 9.27006 72.96 9.26999C74.04 9.26999 74.7 8.41999 74.7 7.02999C74.7 5.81999 74.12 4.82999 72.97 4.82999ZM134.07 27.21H125.2C125.181 27.7741 125.287 28.3354 125.51 28.854C125.733 29.3725 126.068 29.8355 126.49 30.21C127.23 30.83 128.19 31.14 129.39 31.14C130.7 31.14 131.89 30.94 132.97 30.51L133.44 32.57C132.18 33.12 130.69 33.38 128.97 33.38C126.91 33.38 125.29 32.78 124.12 31.57C123.515 30.9134 123.047 30.1428 122.743 29.3032C122.439 28.4635 122.305 27.5718 122.35 26.68C122.35 24.68 122.9 23.01 123.99 21.67C124.546 20.9753 125.257 20.4207 126.067 20.0508C126.876 19.6809 127.761 19.5059 128.65 19.54C130.57 19.54 132.02 20.24 133 21.67C133.818 22.9145 134.23 24.3817 134.18 25.87C134.18 26.39 134.14 26.84 134.07 27.21ZM121.87 6.37999V10.48H120.14V0.49999H121.87V4.55999H121.9C122.1 4.23999 122.4 3.96999 122.75 3.78999C123.1 3.58999 123.51 3.47999 123.95 3.47999C125.12 3.47999 126.35 4.24999 126.35 6.44999V10.49H124.61V6.62999C124.61 5.64999 124.24 4.88999 123.29 4.88999C122.61 4.88999 122.13 5.33999 121.94 5.85999C121.88 6.00999 121.87 6.18999 121.87 6.37999ZM121.42 22.44C121.12 22.39 120.82 22.36 120.49 22.36C120.022 22.3392 119.556 22.4363 119.134 22.6425C118.713 22.8487 118.351 23.1573 118.08 23.54C117.563 24.3131 117.303 25.2304 117.34 26.16V33.14H114.38V24.02C114.38 22.5 114.36 21.1 114.31 19.84H116.88L116.98 22.38H117.07C117.37 21.51 117.87 20.81 118.55 20.28C119.165 19.822 119.913 19.5764 120.68 19.58C120.96 19.58 121.2 19.58 121.42 19.62V22.44ZM113.83 3.63999H114.8V2.34999L116.5 1.86999V3.62999H118.15V4.92999H116.5V7.94999C116.5 8.79999 116.73 9.21999 117.39 9.21999C117.69 9.21999 117.87 9.19999 118.07 9.14999L118.09 10.45C117.84 10.55 117.38 10.65 116.84 10.65C116.19 10.65 115.67 10.43 115.35 10.08C114.97 9.67999 114.8 9.04999 114.8 8.14999V4.92999H113.83V3.62999V3.63999ZM110.78 31.42C110.162 32.0914 109.406 32.62 108.563 32.9689C107.72 33.3178 106.811 33.4785 105.9 33.44C105.027 33.4788 104.156 33.3251 103.349 32.9898C102.542 32.6546 101.819 32.146 101.23 31.5C100.053 30.145 99.4348 28.3936 99.5 26.6C99.5 24.54 100.1 22.85 101.29 21.54C101.902 20.8812 102.65 20.3637 103.483 20.0235C104.315 19.6833 105.212 19.5285 106.11 19.57C108.08 19.57 109.64 20.21 110.83 21.51C111.996 22.8577 112.604 24.5994 112.53 26.38C112.603 28.2206 111.978 30.021 110.78 31.42ZM96.98 10.64C95.05 10.64 93.55 9.31999 93.55 7.10999C93.55 4.85999 95.02 3.47999 97.09 3.47999C99.13 3.47999 100.49 4.90999 100.49 6.99999C100.49 9.51999 98.72 10.64 96.98 10.64ZM98.65 22.05H95.38V28.52C95.38 30.16 95.96 30.97 97.11 30.97C97.64 30.97 98.08 30.94 98.43 30.85L98.51 33.08C97.93 33.3 97.16 33.41 96.21 33.41C95.7055 33.4396 95.2006 33.3603 94.7295 33.1774C94.2585 32.9945 93.8323 32.7123 93.48 32.35C92.81 31.64 92.48 30.45 92.48 28.76V22.06H90.54V19.84H92.49V17.4L95.39 16.53V19.83H98.65V22.05ZM88.23 31.8C87.02 32.88 85.35 33.41 83.2 33.41C81.5298 33.488 79.8719 33.0891 78.42 32.26L79.11 29.8C80.3992 30.563 81.8719 30.9606 83.37 30.95C84.49 30.95 85.35 30.7 85.97 30.2C86.59 29.7 86.9 29.03 86.9 28.18C86.9 27.44 86.64 26.81 86.14 26.3C85.3952 25.6585 84.5276 25.1753 83.59 24.88C80.36 23.68 78.75 21.91 78.75 19.6C78.75 18.08 79.31 16.84 80.45 15.87C81.7411 14.8517 83.3578 14.3364 85 14.42C86.68 14.42 88.07 14.72 89.19 15.29L88.44 17.7C87.3504 17.1231 86.1328 16.8307 84.9 16.85C83.86 16.85 83.04 17.12 82.45 17.62C81.96 18.08 81.72 18.64 81.72 19.29C81.72 20.02 82 20.62 82.56 21.1C83.06 21.54 83.96 22.01 85.24 22.52C86.5701 22.9846 87.7725 23.7553 88.75 24.77C89.5084 25.6602 89.9078 26.8011 89.87 27.97C89.87 29.54 89.32 30.82 88.24 31.8H88.23ZM73.35 10.64C72.46 10.64 71.67 10.3 71.18 9.45999H71.15L71.07 10.49H69.59C69.62 10.02 69.65 9.25999 69.65 8.55999V0.49999H71.38V4.57999H71.4C71.6394 4.22114 71.9682 3.93094 72.354 3.73803C72.7398 3.54512 73.1693 3.45618 73.6 3.47999C75.27 3.47999 76.47 4.87999 76.46 6.94999C76.46 9.41999 74.9 10.65 73.35 10.65V10.64ZM71.32 31.7C70.7988 32.2639 70.1638 32.7106 69.457 33.0106C68.7502 33.3106 67.9877 33.4569 67.22 33.44C65.45 33.44 64.19 32.81 63.42 31.55V38.54H60.46V24.2C60.46 22.78 60.43 21.32 60.36 19.83H62.95L63.12 21.93H63.17C63.6339 21.1656 64.2965 20.5414 65.0872 20.124C65.878 19.7066 66.7672 19.5117 67.66 19.56C69.23 19.56 70.54 20.18 71.59 21.42C72.6899 22.8091 73.2478 24.5504 73.16 26.32C73.16 28.59 72.55 30.37 71.32 31.69V31.7ZM58.05 10.49H59.78V0.48999H58.05V10.49ZM56.7 31.69C56.1797 32.2557 55.5451 32.7043 54.8383 33.006C54.1314 33.3077 53.3684 33.4557 52.6 33.44C50.84 33.44 49.57 32.81 48.8 31.55V38.54H45.85V24.2C45.85 22.78 45.81 21.32 45.74 19.83H48.34L48.5 21.93H48.55C49.0147 21.164 49.6789 20.5389 50.4716 20.1214C51.2642 19.7039 52.1555 19.5099 53.05 19.56C54.61 19.56 55.92 20.18 56.98 21.42C58.0766 22.8108 58.6341 24.5508 58.55 26.32C58.55 28.59 57.94 30.37 56.7 31.69ZM45.13 8.59999C45.13 6.87999 46.66 5.99999 49.19 6.00999V5.89999C49.19 5.44999 49.01 4.69999 47.8 4.69999C47.12 4.69999 46.42 4.90999 45.96 5.20999L45.62 4.07999C46.12 3.77999 47.02 3.47999 48.1 3.47999C50.29 3.47999 50.92 4.87999 50.92 6.37999V8.83999C50.92 9.45999 50.95 10.06 51.04 10.49H49.47L49.35 9.72999H49.31C49.0648 10.0281 48.754 10.2654 48.4018 10.4232C48.0496 10.5811 47.6657 10.6553 47.28 10.64C45.9 10.64 45.13 9.63999 45.13 8.59999ZM41.56 10.49H39.86L37.31 3.62999H39.19L40.29 7.10999C40.49 7.70999 40.63 8.25999 40.76 8.82999H40.81C40.93 8.25999 41.09 7.72999 41.27 7.10999L42.37 3.62999H44.18L41.56 10.49ZM40.89 33.14L39.17 27.73H33.17L31.53 33.14H28.47L34.4 14.7H38.07L44.04 33.15H40.9L40.89 33.14ZM20 32.44C20 33.2436 19.6808 34.0143 19.1125 34.5825C18.5443 35.1508 17.7736 35.47 16.97 35.47H3.97C3.16813 35.47 2.39895 35.1521 1.831 34.5861C1.26305 34.02 0.942649 33.2519 0.940002 32.45V3.56999C0.942649 2.76547 1.2641 1.9948 1.83393 1.42685C2.40375 0.858898 3.17547 0.539986 3.98 0.53999H16.98C17.7811 0.545256 18.5477 0.866494 19.1132 1.43388C19.6787 2.00126 19.9974 2.76892 20 3.56999V32.45V32.44ZM31.53 0.99999H33.73L36.82 10.49H34.95L34.09 7.78999H31.09L30.27 10.49H28.5L31.53 0.99999ZM53.6 10.5H55.33V3.63999H53.6V10.5ZM54.47 0.78999C55.07 0.78999 55.43 1.18999 55.44 1.72999C55.44 2.22999 55.06 2.65999 54.46 2.65999C54.335 2.66544 54.2102 2.64534 54.0933 2.60092C53.9763 2.5565 53.8697 2.48869 53.7798 2.40164C53.6899 2.3146 53.6188 2.21014 53.5707 2.09465C53.5226 1.97917 53.4985 1.85509 53.5 1.72999C53.5 1.19999 53.9 0.78999 54.47 0.78999ZM64.7 4.69999C64.03 4.69999 63.33 4.90999 62.86 5.20999L62.52 4.07999C63.03 3.77999 63.92 3.47999 65 3.47999C67.2 3.47999 67.83 4.87999 67.83 6.37999V8.83999C67.83 9.45999 67.86 10.06 67.94 10.49H66.38L66.25 9.72999H66.21C65.9659 10.0267 65.6566 10.2632 65.3063 10.421C64.956 10.5788 64.574 10.6537 64.19 10.64C62.81 10.64 62.03 9.63999 62.03 8.59999C62.03 6.87999 63.56 5.99999 66.1 6.00999V5.89999C66.1 5.44999 65.91 4.69999 64.7 4.69999ZM78.43 10.49H80.16V0.48999H78.43V10.49ZM85.53 3.47999C87.75 3.47999 88.48 5.30999 88.48 6.80999C88.48 7.13999 88.45 7.38999 88.42 7.54999H83.83C83.88 8.77999 84.83 9.31999 85.94 9.31999C86.74 9.31999 87.31 9.18999 87.84 9.00999L88.1 10.19C87.5 10.44 86.69 10.63 85.7 10.63C83.48 10.63 82.17 9.25999 82.17 7.16999C82.17 5.26999 83.33 3.46999 85.52 3.46999L85.53 3.47999ZM103.69 3.62999L103.78 4.65999H103.82C104.052 4.28847 104.377 3.98408 104.763 3.77708C105.149 3.57007 105.582 3.46765 106.02 3.47999C107.22 3.47999 108.45 4.24999 108.45 6.41999V10.49H106.72V6.61999C106.72 5.62999 106.35 4.88999 105.42 4.88999C104.72 4.88999 104.24 5.37999 104.06 5.88999C104 6.03999 103.98 6.24999 103.98 6.44999V10.49H102.25V5.66999C102.25 4.88999 102.22 4.21999 102.19 3.62999H103.69ZM131.16 3.47999C133.38 3.47999 134.11 5.30999 134.11 6.80999C134.11 7.13999 134.08 7.38999 134.05 7.54999H129.47C129.51 8.77999 130.47 9.31999 131.57 9.31999C132.38 9.31999 132.94 9.18999 133.47 9.00999L133.73 10.19C133.14 10.44 132.33 10.63 131.33 10.63C129.12 10.63 127.81 9.25999 127.81 7.16999C127.81 5.26999 128.96 3.46999 131.16 3.46999V3.47999ZM33.06 4.14999C32.88 3.57999 32.72 2.92999 32.58 2.37999H32.56C32.41 2.92999 32.26 3.58999 32.1 4.14999L31.37 6.48999H33.81L33.06 4.14999ZM49.19 8.45999C49.23 8.32999 49.23 8.20999 49.23 8.07999V7.13999C48.01 7.11999 46.84 7.37999 46.84 8.41999C46.84 9.08999 47.28 9.39999 47.83 9.39999C48.53 9.39999 49.03 8.94999 49.19 8.45999ZM128.43 21.59C127.46 21.59 126.68 22 126.07 22.79C125.567 23.4584 125.266 24.2562 125.2 25.09H131.36C131.395 24.2926 131.193 23.5028 130.78 22.82C130.535 22.4229 130.187 22.0992 129.774 21.8828C129.36 21.6664 128.896 21.5652 128.43 21.59ZM36.16 17.16H36.11C35.91 17.94 35.63 19.1 35.23 20.63L33.69 25.45H38.65L37.09 20.63C36.92 20.13 36.61 18.98 36.16 17.16ZM66.7 21.92C65.97 21.92 65.32 22.16 64.72 22.64C64.1311 23.1252 63.7225 23.7944 63.56 24.54C63.46 24.92 63.42 25.21 63.42 25.45V27.67C63.42 28.64 63.72 29.45 64.31 30.12C64.9 30.78 65.67 31.12 66.61 31.12C67.74 31.12 68.61 30.69 69.22 29.83C69.85 28.97 70.16 27.84 70.16 26.43C70.16 25.14 69.86 24.07 69.28 23.23C68.992 22.8151 68.6055 22.4782 68.1552 22.2496C67.7049 22.0209 67.2049 21.9077 66.7 21.92ZM106 21.73C104.82 21.73 103.92 22.26 103.3 23.32C102.77 24.18 102.5 25.25 102.5 26.5C102.5 27.73 102.77 28.77 103.3 29.64C103.558 30.1269 103.946 30.5326 104.421 30.8116C104.896 31.0907 105.439 31.232 105.99 31.22C107.11 31.22 107.99 30.69 108.63 29.61C109.18 28.73 109.46 27.67 109.46 26.45C109.46 25.23 109.19 24.18 108.66 23.31C108.408 22.827 108.027 22.4234 107.559 22.1444C107.091 21.8655 106.555 21.722 106.01 21.73H106ZM52.08 21.92C51.36 21.92 50.7 22.16 50.1 22.64C49.5111 23.1252 49.1025 23.7944 48.94 24.54C48.84 24.92 48.8 25.21 48.8 25.45V27.67C48.8 28.64 49.1 29.45 49.7 30.12C50.28 30.78 51.06 31.12 52 31.12C53.11 31.12 53.99 30.69 54.6 29.83C55.23 28.97 55.53 27.84 55.53 26.43C55.53 25.14 55.25 24.07 54.66 23.23C54.372 22.8151 53.9855 22.4782 53.5352 22.2496C53.0849 22.0209 52.5849 21.9077 52.08 21.92ZM2.78 29.38H18.16V6.63999H2.78V29.38ZM10.48 30.73C10.0865 30.7615 9.71938 30.94 9.45163 31.23C9.18388 31.52 9.0352 31.9003 9.0352 32.295C9.0352 32.6897 9.18388 33.0699 9.45163 33.36C9.71938 33.65 10.0865 33.8285 10.48 33.86C10.8735 33.8285 11.2406 33.65 11.5084 33.36C11.7761 33.0699 11.9248 32.6897 11.9248 32.295C11.9248 31.9003 11.7761 31.52 11.5084 31.23C11.2406 30.94 10.8735 30.7615 10.48 30.73ZM8.97 4.32999H11.97C12.17 4.32999 12.34 4.15999 12.34 3.96999C12.34 3.76999 12.18 3.60999 11.98 3.60999H8.97C8.77 3.60999 8.61 3.76999 8.61 3.96999C8.61 4.16999 8.77 4.31999 8.97 4.31999V4.32999Z" fill="#FB3B2D"/>
</svg>
