<svg width="153" height="37" viewBox="0 0 153 37" fill="none" xmlns="http://www.w3.org/2000/svg">
<path fill-rule="evenodd" clip-rule="evenodd" d="M42.72 3.05997C42.4863 2.41065 42.286 1.74978 42.12 1.07997H42.06C42.06 1.16997 41.85 1.82997 41.43 3.05997H42.72ZM44.36 5.05997H43.22C43.22 4.89997 43.12 4.45997 42.9 3.72997H41.26C41.1059 4.16119 40.9954 4.60674 40.93 5.05997H39.86C39.86 4.95997 40.14 4.20997 40.69 2.78997C41.24 1.36997 41.52 0.589965 41.52 0.439965H42.86C42.86 0.579965 43.11 1.33997 43.61 2.75997C44.11 4.15997 44.36 4.92997 44.36 5.05997ZM48.93 5.05997H48.06C48.06 4.95997 47.73 4.45997 47.08 3.51997C46.6035 2.9096 46.2132 2.23663 45.92 1.51997H45.86C45.92 2.03997 45.95 2.50997 45.95 2.91997C45.95 3.50997 45.96 4.21997 46 5.05997H45.13C45.1999 3.52076 45.1999 1.97917 45.13 0.439965H46.18C46.18 0.569965 46.48 1.06997 47.06 1.93997C47.4941 2.52649 47.8535 3.16472 48.13 3.83997H48.18C48.12 3.29997 48.09 2.83997 48.09 2.40997C48.09 1.76997 48.08 1.10997 48.04 0.439965H48.94C48.8732 1.97924 48.8732 3.52069 48.94 5.05997H48.93ZM53.1 2.73997C53.1 2.28997 52.97 1.90997 52.7 1.59997C52.44 1.28997 52.04 1.12997 51.5 1.12997L51.08 1.15997C51.1 1.62997 51.11 2.12997 51.11 2.63997C51.11 3.20997 51.12 3.76997 51.15 4.32997C51.3 4.35997 51.45 4.36997 51.61 4.36997C52.11 4.36997 52.49 4.20997 52.74 3.89997C52.98 3.57997 53.1 3.19997 53.1 2.73997ZM54.07 2.58997C54.07 3.25997 53.86 3.84997 53.43 4.34997C53 4.84997 52.39 5.09997 51.62 5.09997C51.27 5.09997 50.79 5.08997 50.17 5.05997C50.2314 3.52058 50.2314 1.97935 50.17 0.439965H50.79C51.0735 0.441912 51.3569 0.435243 51.64 0.419966C52.49 0.419966 53.11 0.629966 53.5 1.05997C53.88 1.47997 54.07 1.99997 54.07 2.58997ZM57.48 1.79997C57.48 1.32997 57.18 1.08997 56.58 1.08997C56.35 1.08997 56.16 1.10997 55.98 1.13997C56.01 1.50997 56.03 1.97997 56.03 2.56997L56.36 2.57997C57.11 2.57997 57.48 2.31997 57.48 1.79997ZM58.81 5.05997H57.76C57.6131 4.51985 57.4016 3.99942 57.13 3.50997C56.99 3.30997 56.75 3.20997 56.43 3.20997H56.03C56.03 3.82997 56.04 4.43997 56.06 5.05997H55.08C55.1432 3.52061 55.1432 1.97932 55.08 0.439965H55.69C56.0468 0.444208 56.4036 0.437539 56.76 0.419966C57.85 0.419966 58.39 0.789965 58.39 1.52997C58.39 2.12997 58.08 2.52997 57.46 2.76997V2.81997C57.7 2.87997 57.91 3.06997 58.09 3.37997C58.27 3.67997 58.51 4.23997 58.81 5.05997ZM62.92 2.76997C62.92 2.26997 62.79 1.86997 62.54 1.56997C62.29 1.25997 61.98 1.10997 61.6 1.10997C61.26 1.10997 60.97 1.25997 60.72 1.56997C60.48 1.86997 60.36 2.26997 60.36 2.73997C60.36 3.23997 60.49 3.63997 60.74 3.93997C61 4.24997 61.31 4.40997 61.68 4.40997C62.02 4.40997 62.32 4.24997 62.56 3.93997C62.8 3.62997 62.92 3.23997 62.92 2.76997ZM63.9 2.66997C63.9 3.38997 63.68 3.98996 63.23 4.46996C62.79 4.94997 62.23 5.18997 61.58 5.18997C60.96 5.18997 60.44 4.96997 60.02 4.52997C59.59 4.08997 59.38 3.52997 59.38 2.85997C59.38 2.12997 59.61 1.52997 60.05 1.05997C60.5 0.569966 61.05 0.339966 61.7 0.339966C62.32 0.339966 62.85 0.549965 63.27 0.989965C63.69 1.42997 63.9 1.98997 63.9 2.66997ZM65.9 5.05997H64.9C64.9618 3.52059 64.9618 1.97934 64.9 0.439965H65.9C65.8371 1.97932 65.8371 3.52061 65.9 5.05997ZM70.08 2.73997C70.08 2.28997 69.95 1.90997 69.68 1.59997C69.42 1.28997 69.01 1.12997 68.47 1.12997L68.05 1.15997C68.07 1.62997 68.09 2.12997 68.09 2.63997C68.09 3.20997 68.09 3.76997 68.12 4.32997C68.27 4.35997 68.42 4.36997 68.58 4.36997C69.09 4.36997 69.47 4.20997 69.71 3.89997C69.96 3.57997 70.08 3.19997 70.08 2.73997ZM71.05 2.58997C71.05 3.25997 70.83 3.84997 70.4 4.34997C69.97 4.84997 69.37 5.09997 68.6 5.09997C68.24 5.09997 67.76 5.08997 67.14 5.05997C67.2034 3.52062 67.2034 1.97931 67.14 0.439965H67.77C68.0501 0.441777 68.3303 0.435108 68.61 0.419966C69.47 0.419966 70.09 0.629966 70.47 1.05997C70.85 1.47997 71.05 1.99997 71.05 2.58997ZM76.23 3.05997C75.9963 2.41065 75.796 1.74978 75.63 1.07997H75.57C75.57 1.16997 75.36 1.82997 74.94 3.05997H76.23ZM77.87 5.05997H76.73C76.73 4.89997 76.63 4.45997 76.41 3.72997H74.77C74.6161 4.16125 74.5056 4.60678 74.44 5.05997H73.37C73.37 4.95997 73.65 4.20997 74.2 2.78997C74.75 1.36997 75.03 0.589965 75.03 0.439965H76.37C76.37 0.579965 76.62 1.33997 77.12 2.75997C77.62 4.15997 77.87 4.92997 77.87 5.05997ZM81.1 1.84997C81.1 1.33997 80.76 1.08997 80.08 1.08997C79.92 1.08997 79.74 1.10997 79.55 1.13997C79.58 1.58997 79.59 2.08997 79.59 2.65997H79.79C80.66 2.65997 81.09 2.38997 81.09 1.84997H81.1ZM82 1.64997C82 2.21997 81.8 2.62997 81.38 2.89997C80.8452 3.23048 80.2147 3.37138 79.59 3.29997C79.59 3.74997 79.61 4.32997 79.63 5.05997H78.63C78.6937 3.52062 78.6937 1.97931 78.63 0.439965H79.25C79.6334 0.443809 80.0169 0.437141 80.4 0.419966C80.85 0.419966 81.23 0.519966 81.54 0.719966C81.85 0.919966 82.01 1.23997 82.01 1.64997H82ZM85.35 1.84997C85.35 1.33997 85.01 1.08997 84.34 1.08997C84.17 1.08997 83.99 1.10997 83.81 1.13997C83.83 1.58997 83.85 2.08997 83.85 2.65997H84.05C84.91 2.65997 85.35 2.38997 85.35 1.84997ZM86.26 1.64997C86.26 2.21997 86.06 2.62997 85.63 2.89997C85.098 3.22828 84.4713 3.36909 83.85 3.29997C83.85 3.74997 83.86 4.32997 83.89 5.05997H82.89C82.9537 3.52062 82.9537 1.97931 82.89 0.439965H83.51C83.8934 0.44376 84.2769 0.437091 84.66 0.419966C85.11 0.419966 85.49 0.519966 85.8 0.719966C86.1 0.919966 86.26 1.23997 86.26 1.64997ZM92.24 2.76997C92.24 2.26997 92.11 1.86997 91.86 1.56997C91.61 1.25997 91.29 1.10997 90.92 1.10997C90.58 1.10997 90.28 1.25997 90.04 1.56997C89.8 1.86997 89.68 2.26997 89.68 2.73997C89.68 3.23997 89.81 3.63997 90.06 3.93997C90.32 4.24997 90.63 4.40997 91 4.40997C91.34 4.40997 91.64 4.24997 91.88 3.93997C92.12 3.62997 92.24 3.23997 92.24 2.76997ZM93.22 2.66997C93.22 3.38997 93 3.98996 92.55 4.46996C92.11 4.94997 91.55 5.18997 90.9 5.18997C90.28 5.18997 89.75 4.96997 89.33 4.52997C88.91 4.08997 88.7 3.52997 88.7 2.85997C88.7 2.12997 88.92 1.52997 89.37 1.05997C89.81 0.569966 90.37 0.339966 91.02 0.339966C91.64 0.339966 92.17 0.549965 92.59 0.989965C93.01 1.42997 93.22 1.98997 93.22 2.66997ZM98.03 5.05997H97.15C97.15 4.95997 96.82 4.45997 96.17 3.51997C95.6933 2.90974 95.303 2.23674 95.01 1.51997H94.95C95.01 2.03997 95.05 2.50997 95.05 2.91997C95.05 3.50997 95.05 4.21997 95.09 5.05997H94.22C94.2899 3.52076 94.2899 1.97917 94.22 0.439965H95.27C95.27 0.569965 95.57 1.06997 96.15 1.93997C96.5841 2.52649 96.9435 3.16472 97.22 3.83997H97.27C97.22 3.29997 97.19 2.83997 97.19 2.40997C97.19 1.76997 97.17 1.10997 97.14 0.439965H98.03C97.9632 1.97924 97.9632 3.52069 98.03 5.05997ZM56.18 19.86C56.18 22.15 55.5 23.98 54.14 25.34C53.3629 26.147 52.4239 26.7807 51.3847 27.1995C50.3456 27.6183 49.2296 27.8127 48.11 27.77C46.9883 27.79 45.8742 27.5814 44.8357 27.1567C43.7973 26.732 42.8562 26.1003 42.07 25.3C41.2586 24.5085 40.6188 23.5584 40.1905 22.509C39.7621 21.4595 39.5543 20.3332 39.58 19.2C39.58 16.76 40.41 14.73 42.07 13.08C42.8571 12.2815 43.7985 11.6515 44.8369 11.2286C45.8753 10.8057 46.989 10.5986 48.11 10.62C49.28 10.62 50.41 10.85 51.48 11.31C52.4652 11.7104 53.3422 12.3374 54.04 13.14L52.6 14.6C52.0499 13.9513 51.3579 13.438 50.5775 13.0999C49.7972 12.7617 48.9494 12.6078 48.1 12.65C46.38 12.65 44.89 13.25 43.63 14.47C43.0002 15.0818 42.5058 15.8188 42.1785 16.6335C41.8512 17.4482 41.6985 18.3225 41.73 19.2C41.73 21.15 42.36 22.72 43.63 23.94C44.2181 24.5261 44.9173 24.989 45.6865 25.3016C46.4558 25.6141 47.2797 25.7699 48.11 25.76C49.94 25.76 51.47 25.15 52.69 23.93C53.49 23.13 53.94 22.03 54.07 20.6H48.1V18.63H56.05C56.1268 19.0389 56.1669 19.4539 56.17 19.87L56.18 19.86ZM60.25 24.73C60.5786 25.0824 60.9765 25.3629 61.4188 25.5539C61.8611 25.745 62.3382 25.8424 62.82 25.84C63.82 25.84 64.68 25.47 65.4 24.73C65.7719 24.3372 66.061 23.8736 66.25 23.3668C66.439 22.86 66.524 22.3203 66.5 21.78C66.5 20.56 66.13 19.58 65.4 18.84C65.0699 18.4868 64.6703 18.2059 64.2262 18.0148C63.7822 17.8238 63.3034 17.7268 62.82 17.73C61.83 17.73 60.97 18.1 60.25 18.83C59.8781 19.2227 59.589 19.6863 59.4 20.1931C59.211 20.6999 59.126 21.2396 59.15 21.78C59.15 23.01 59.52 23.98 60.25 24.73ZM58.68 17.51C59.2116 16.9512 59.8551 16.511 60.5685 16.2181C61.2819 15.9251 62.0492 15.7861 62.82 15.81C64.51 15.81 65.89 16.37 66.98 17.51C67.518 18.0799 67.938 18.7506 68.216 19.4833C68.494 20.2161 68.6245 20.9966 68.6 21.78C68.6 23.5 68.06 24.92 66.97 26.06C66.4373 26.62 65.7921 27.0609 65.0769 27.3539C64.3616 27.6469 63.5925 27.7853 62.82 27.76C62.0492 27.7839 61.2819 27.6448 60.5685 27.3519C59.8551 27.0589 59.2116 26.6187 58.68 26.06C58.139 25.4896 57.7165 24.8177 57.4367 24.0831C57.1569 23.3485 57.0255 22.5657 57.05 21.78C57.05 20.08 57.59 18.65 58.68 17.51ZM72.51 24.73C72.8397 25.0836 73.2393 25.3649 73.6834 25.556C74.1275 25.747 74.6065 25.8438 75.09 25.84C76.09 25.84 76.94 25.47 77.67 24.73C78.0401 24.3364 78.3274 23.8725 78.5146 23.3657C78.7019 22.8589 78.7853 22.3196 78.76 21.78C78.76 20.56 78.39 19.58 77.66 18.84C77.3311 18.4881 76.933 18.2078 76.4908 18.0168C76.0486 17.8258 75.5717 17.7282 75.09 17.73C74.09 17.73 73.24 18.1 72.51 18.83C72.1399 19.2235 71.8526 19.6875 71.6654 20.1943C71.4781 20.701 71.3947 21.2403 71.42 21.78C71.42 23.01 71.78 23.98 72.52 24.73H72.51ZM70.94 17.51C71.4727 16.95 72.1179 16.509 72.8331 16.216C73.5484 15.923 74.3175 15.7846 75.09 15.81C76.77 15.81 78.15 16.37 79.24 17.51C79.7797 18.0791 80.2016 18.7494 80.4814 19.4822C80.7611 20.215 80.8932 20.9959 80.87 21.78C80.87 23.5 80.32 24.92 79.24 26.06C78.7073 26.62 78.0621 27.0609 77.3469 27.3539C76.6316 27.6469 75.8625 27.7853 75.09 27.76C74.3175 27.7853 73.5484 27.6469 72.8331 27.3539C72.1179 27.0609 71.4727 26.62 70.94 26.06C70.399 25.4896 69.9765 24.8177 69.6967 24.0831C69.4169 23.3485 69.2855 22.5657 69.31 21.78C69.31 20.08 69.85 18.65 70.94 17.51ZM87.26 25.84C88.26 25.84 89.1 25.47 89.8 24.74C90.5235 23.9291 90.8973 22.8652 90.84 21.78C90.84 20.55 90.49 19.56 89.8 18.83C89.479 18.4767 89.0865 18.1959 88.6485 18.0063C88.2106 17.8166 87.7372 17.7224 87.26 17.73C86.28 17.73 85.44 18.1 84.74 18.83C84.0135 19.6357 83.6359 20.6964 83.69 21.78C83.69 23.01 84.04 23.98 84.74 24.73C85.44 25.47 86.28 25.84 87.26 25.84ZM87.1 32.72C85.9341 32.769 84.7867 32.416 83.85 31.72C83.0645 31.1243 82.4419 30.3401 82.04 29.44L83.96 28.64C84.18 29.24 84.56 29.76 85.14 30.17C85.71 30.59 86.37 30.79 87.1 30.79C88.26 30.79 89.18 30.44 89.84 29.75C90.51 29.05 90.84 28.11 90.84 26.92V25.84H90.74C90.38 26.39 89.86 26.85 89.19 27.22C88.2004 27.7342 87.0659 27.8985 85.971 27.6861C84.8762 27.4737 83.8855 26.897 83.16 26.05C82.0983 24.8861 81.5316 23.3546 81.58 21.78C81.58 20.08 82.1 18.67 83.16 17.52C83.8865 16.6744 84.8772 16.0989 85.9716 15.8865C87.066 15.6742 88.2 15.8375 89.19 16.35C89.86 16.72 90.38 17.18 90.75 17.73H90.84V16.17H92.86V26.83C92.86 28.75 92.3 30.22 91.18 31.22C90.0605 32.221 88.6013 32.7575 87.1 32.72ZM94.85 27.4H96.96V10.99H94.86L94.85 27.4ZM106.95 20.43C106.878 19.7362 106.567 19.0891 106.07 18.6C105.53 18.02 104.72 17.73 103.65 17.73C102.87 17.73 102.2 17.97 101.62 18.46C101.03 18.9771 100.618 19.6661 100.44 20.43H106.95ZM103.93 27.77C102.23 27.77 100.85 27.2 99.79 26.07C98.7115 24.9071 98.1364 23.3651 98.19 21.78C98.19 20.15 98.71 18.74 99.74 17.56C100.227 16.9894 100.835 16.5352 101.52 16.2307C102.206 15.9261 102.95 15.7789 103.7 15.8C105.36 15.8 106.7 16.34 107.7 17.43C108.7 18.51 109.2 19.97 109.2 21.78L109.18 22.18H100.31C100.319 23.1843 100.725 24.1443 101.44 24.85C102.14 25.51 102.94 25.85 103.88 25.85C105.39 25.85 106.42 25.2 106.95 23.92L108.83 24.69C108.47 25.57 107.86 26.29 107.03 26.89C106.18 27.47 105.15 27.77 103.93 27.77ZM117.5 18.73H121.03C121.91 18.73 122.63 18.43 123.16 17.84C123.7 17.24 123.96 16.59 123.96 15.87C123.96 15.15 123.7 14.49 123.16 13.9C122.63 13.3 121.91 13 121.03 13H117.5V18.73ZM117.5 27.4H115.39V10.99H120.99C122.37 10.99 123.58 11.45 124.59 12.37C125.085 12.8067 125.478 13.3463 125.742 13.9508C126.006 14.5554 126.135 15.2104 126.12 15.87C126.12 17.27 125.61 18.44 124.59 19.37C123.612 20.2752 122.323 20.7693 120.99 20.75H117.49V27.4H117.5ZM127.5 27.4H129.6V10.99H127.5V27.4ZM135.38 25.84C136.25 25.84 137.04 25.52 137.75 24.87C138.084 24.5871 138.353 24.2349 138.538 23.8378C138.723 23.4406 138.819 23.008 138.82 22.57C138.22 22.07 137.32 21.83 136.14 21.83C135.11 21.83 134.34 22.05 133.82 22.49C133.581 22.6742 133.386 22.9103 133.251 23.1805C133.116 23.4506 133.044 23.7479 133.04 24.05C133.04 24.6 133.28 25.04 133.75 25.36C134.22 25.68 134.77 25.84 135.38 25.84ZM135.04 27.77C133.84 27.77 132.84 27.42 132.04 26.73C131.24 26.05 130.84 25.13 130.84 24.01C130.84 22.78 131.31 21.83 132.26 21.13C133.283 20.4129 134.511 20.0479 135.76 20.09C137.01 20.09 138.02 20.32 138.82 20.77V20.45C138.835 20.0774 138.766 19.7063 138.619 19.3637C138.472 19.0211 138.25 18.7157 137.97 18.47C137.391 17.969 136.645 17.7047 135.88 17.73C135.28 17.73 134.72 17.87 134.22 18.16C133.72 18.46 133.38 18.85 133.2 19.36L131.27 18.53C131.53 17.86 132.05 17.23 132.81 16.66C133.698 16.049 134.763 15.7469 135.84 15.8C137.146 15.7565 138.421 16.2063 139.41 17.06C139.893 17.5111 140.27 18.0631 140.516 18.6767C140.761 19.2902 140.868 19.9503 140.83 20.61V27.4H138.82V25.84H138.72C138.33 26.459 137.783 26.9637 137.135 27.3027C136.487 27.6417 135.761 27.8029 135.03 27.77H135.04ZM145.42 32.35H143.24L145.85 26.69L141.22 16.17H143.52L146.86 24.24H146.91L150.16 16.17H152.46L145.42 32.35ZM0.239998 18.91V3.19997C0.239998 2.54997 0.359998 1.96997 0.819998 1.47997C0.999998 1.28997 1.12 1.23997 1.34 1.45997L11.94 12.25L18.82 19.22C19.04 19.44 19.06 19.56 18.82 19.79C13.1964 25.3797 7.58309 30.9797 1.98 36.59C1.64 36.93 1.4 36.89 1.07 36.64C0.794667 36.4287 0.575125 36.1534 0.43047 35.8379C0.285815 35.5225 0.220428 35.1765 0.239998 34.83V25.5V18.91ZM2.26 0.869966C2.69 0.869966 2.99 0.989965 3.28 1.15997L24.82 13.22C25.15 13.4 25.15 13.51 24.89 13.76L20.1 18.52C19.93 18.7 19.82 18.8 19.6 18.56L2.43 1.09997L2.25 0.869966H2.26ZM3.86 36.45C9.08 31.18 14.3 25.9 19.5 20.63C19.82 20.31 19.97 20.35 20.26 20.65C21.584 22.0223 22.9208 23.3824 24.27 24.73C24.51 24.97 24.53 25.07 24.21 25.24L4.14 36.24C4.04 36.31 3.94 36.41 3.87 36.44L3.86 36.45ZM33.64 19.06C33.61 19.66 33.34 20.06 32.91 20.38C32.61 20.61 32.26 20.8 31.91 20.98L25.85 24.34C25.57 24.49 25.41 24.48 25.19 24.24C23.7503 22.7598 22.3003 21.2898 20.84 19.83C20.64 19.62 20.62 19.5 20.84 19.28C22.54 17.61 24.23 15.93 25.91 14.24C26.11 14.04 26.25 14.02 26.5 14.16L32.5 17.53C33.13 17.88 33.61 18.33 33.64 19.06Z" fill="#FB3B2D"/>
</svg>
